<svg width="51" height="50" viewBox="0 0 51 50" fill="none" xmlns="http://www.w3.org/2000/svg">
<path d="M25.334 35C25.334 40.5228 29.8111 45 35.334 45C40.8568 45 45.334 40.5228 45.334 35C45.334 29.4772 40.8568 25 35.334 25H25.334V35Z" fill="#FFD11A"/>
<path d="M25.334 15C25.334 9.47715 20.8568 5 15.334 5C9.81114 5 5.33398 9.47715 5.33398 15C5.33398 20.5228 9.81114 25 15.334 25H25.334V15Z" fill="#FFD11A"/>
<path fill-rule="evenodd" clip-rule="evenodd" d="M35.334 5C29.8111 5 25.334 9.47715 25.334 15V25H35.334C40.8568 25 45.334 20.5228 45.334 15C45.334 9.47715 40.8568 5 35.334 5ZM40.334 15C40.334 17.7614 38.0954 20 35.334 20C32.5726 20 30.334 17.7614 30.334 15C30.334 12.2386 32.5726 10 35.334 10C38.0954 10 40.334 12.2386 40.334 15Z" fill="#404040"/>
<path fill-rule="evenodd" clip-rule="evenodd" d="M15.334 45C20.8568 45 25.334 40.5228 25.334 35V25H15.334C9.81114 25 5.33398 29.4772 5.33398 35C5.33398 40.5228 9.81114 45 15.334 45ZM20.334 35C20.334 37.7614 18.0954 40 15.334 40C12.5726 40 10.334 37.7614 10.334 35C10.334 32.2386 12.5726 30 15.334 30C18.0954 30 20.334 32.2386 20.334 35Z" fill="#404040"/>
</svg>
