<svg width="50" height="51" viewBox="0 0 50 51" fill="none" xmlns="http://www.w3.org/2000/svg">
<path d="M33.332 50.5002V42.1668C37.9431 42.1668 41.6654 38.4446 41.6654 33.8335H49.9987C49.9987 43.0557 42.5265 50.5002 33.332 50.5002Z" fill="#FFD11A"/>
<path d="M33.3327 50.5002V42.1668C28.7216 42.1668 24.9993 38.4446 24.9993 33.8335H16.666C16.666 43.0557 24.1382 50.5002 33.3327 50.5002Z" fill="#FFD11A"/>
<path d="M0 33.833H8.33333C8.33333 38.4441 12.0556 42.1663 16.6667 42.1663V50.4997C7.47222 50.4997 0 43.0552 0 33.833Z" fill="#FFD11A"/>
<path d="M0 33.8332H8.33333C8.33333 29.2221 12.0556 25.4998 16.6667 25.4998V17.1665C7.47222 17.1665 0 24.6387 0 33.8332Z" fill="#FFD11A"/>
<path d="M16.6667 0.5V8.83333C12.0556 8.83333 8.33333 12.5556 8.33333 17.1667H0C0 7.97222 7.47222 0.5 16.6667 0.5Z" fill="#FFD11A"/>
<path d="M16.666 0.5V8.83333C21.2771 8.83333 24.9993 12.5556 24.9993 17.1667H33.3327C33.3327 7.97222 25.8605 0.5 16.666 0.5Z" fill="#FFD11A"/>
<path d="M50.0007 17.1667H41.6673C41.6673 12.5556 37.9451 8.83333 33.334 8.83333V0.5C42.5284 0.5 50.0007 7.97222 50.0007 17.1667Z" fill="#FFD11A"/>
<path d="M50.0007 17.1665H41.6673C41.6673 21.7776 37.9451 25.4998 33.334 25.4998V33.8332C42.5284 33.8332 50.0007 26.3887 50.0007 17.1665Z" fill="#FFD11A"/>
</svg>
