<svg width="179" height="51" viewBox="0 0 179 51" fill="none" xmlns="http://www.w3.org/2000/svg">
<path d="M164.627 16.8638H167.697V21.5747L167.51 23.6606H167.697C168.025 23.1138 168.494 22.6685 169.104 22.3247C169.729 21.9653 170.424 21.7856 171.189 21.7856C172.674 21.7856 173.768 22.2231 174.471 23.0981C175.189 23.9731 175.549 25.1685 175.549 26.6841V33.645H172.479V27.0591C172.479 26.2622 172.291 25.6606 171.916 25.2544C171.541 24.8325 171.018 24.6216 170.346 24.6216C169.924 24.6216 169.549 24.7153 169.221 24.9028C168.893 25.0747 168.611 25.3169 168.377 25.6294C168.158 25.9419 167.986 26.3091 167.861 26.731C167.752 27.1372 167.697 27.5747 167.697 28.0435V33.645H164.627V16.8638Z" fill="white"/>
<path d="M163.457 30.7153C162.957 31.6841 162.254 32.481 161.348 33.106C160.457 33.7153 159.34 34.02 157.996 34.02C157.105 34.02 156.285 33.8716 155.535 33.5747C154.801 33.2622 154.16 32.8325 153.613 32.2856C153.082 31.7388 152.66 31.0981 152.348 30.3638C152.051 29.6138 151.902 28.7935 151.902 27.9028C151.902 27.0122 152.051 26.1919 152.348 25.4419C152.66 24.6919 153.082 24.0513 153.613 23.52C154.16 22.9731 154.801 22.5513 155.535 22.2544C156.285 21.9419 157.105 21.7856 157.996 21.7856C159.324 21.7856 160.441 22.0903 161.348 22.6997C162.254 23.3091 162.918 24.0981 163.34 25.0669L160.527 26.2388C160.262 25.7075 159.918 25.3091 159.496 25.0435C159.09 24.7622 158.574 24.6216 157.949 24.6216C157.543 24.6216 157.16 24.6997 156.801 24.856C156.441 25.0122 156.121 25.231 155.84 25.5122C155.574 25.7935 155.363 26.1372 155.207 26.5435C155.051 26.9497 154.973 27.4028 154.973 27.9028C154.973 28.4028 155.051 28.856 155.207 29.2622C155.363 29.6685 155.574 30.0122 155.84 30.2935C156.121 30.5747 156.441 30.7935 156.801 30.9497C157.16 31.106 157.543 31.1841 157.949 31.1841C158.59 31.1841 159.129 31.0435 159.566 30.7622C160.02 30.4653 160.379 30.0435 160.645 29.4966L163.457 30.7153Z" fill="white"/>
<path d="M151 30.8794C150.469 31.8169 149.75 32.5747 148.844 33.1528C147.953 33.731 146.859 34.02 145.563 34.02C144.688 34.02 143.875 33.8716 143.125 33.5747C142.391 33.2622 141.75 32.8325 141.203 32.2856C140.656 31.7388 140.227 31.0981 139.914 30.3638C139.617 29.6138 139.469 28.7935 139.469 27.9028C139.469 27.0747 139.617 26.2935 139.914 25.5591C140.211 24.8091 140.625 24.1606 141.156 23.6138C141.688 23.0513 142.313 22.606 143.031 22.2778C143.766 21.9497 144.57 21.7856 145.445 21.7856C146.367 21.7856 147.188 21.9419 147.906 22.2544C148.625 22.5513 149.227 22.9731 149.711 23.52C150.195 24.0513 150.563 24.6841 150.813 25.4185C151.063 26.1528 151.188 26.9497 151.188 27.8091C151.188 27.9185 151.188 28.0122 151.188 28.0903C151.172 28.1841 151.164 28.27 151.164 28.3481C151.148 28.4263 151.141 28.5122 151.141 28.606H142.492C142.555 29.0747 142.68 29.481 142.867 29.8247C143.07 30.1528 143.313 30.4341 143.594 30.6685C143.891 30.8872 144.211 31.0513 144.555 31.1606C144.898 31.2544 145.25 31.3013 145.609 31.3013C146.313 31.3013 146.891 31.145 147.344 30.8325C147.813 30.5044 148.18 30.0981 148.445 29.6138L151 30.8794ZM148.211 26.4263C148.195 26.2231 148.125 25.9966 148 25.7466C147.891 25.4966 147.719 25.2622 147.484 25.0435C147.266 24.8247 146.984 24.645 146.641 24.5044C146.313 24.3638 145.914 24.2935 145.445 24.2935C144.789 24.2935 144.211 24.481 143.711 24.856C143.211 25.231 142.859 25.7544 142.656 26.4263H148.211Z" fill="white"/>
<path d="M132.979 33.645V19.8638H128.291V16.8638H140.83V19.8638H136.143V33.645H132.979Z" fill="white"/>
<path d="M127.596 30.8794C127.064 31.8169 126.346 32.5747 125.439 33.1528C124.549 33.731 123.455 34.02 122.158 34.02C121.283 34.02 120.471 33.8716 119.721 33.5747C118.986 33.2622 118.346 32.8325 117.799 32.2856C117.252 31.7388 116.822 31.0981 116.51 30.3638C116.213 29.6138 116.064 28.7935 116.064 27.9028C116.064 27.0747 116.213 26.2935 116.51 25.5591C116.807 24.8091 117.221 24.1606 117.752 23.6138C118.283 23.0513 118.908 22.606 119.627 22.2778C120.361 21.9497 121.166 21.7856 122.041 21.7856C122.963 21.7856 123.783 21.9419 124.502 22.2544C125.221 22.5513 125.822 22.9731 126.307 23.52C126.791 24.0513 127.158 24.6841 127.408 25.4185C127.658 26.1528 127.783 26.9497 127.783 27.8091C127.783 27.9185 127.783 28.0122 127.783 28.0903C127.768 28.1841 127.76 28.27 127.76 28.3481C127.744 28.4263 127.736 28.5122 127.736 28.606H119.088C119.15 29.0747 119.275 29.481 119.463 29.8247C119.666 30.1528 119.908 30.4341 120.189 30.6685C120.486 30.8872 120.807 31.0513 121.15 31.1606C121.494 31.2544 121.846 31.3013 122.205 31.3013C122.908 31.3013 123.486 31.145 123.939 30.8325C124.408 30.5044 124.775 30.0981 125.041 29.6138L127.596 30.8794ZM124.807 26.4263C124.791 26.2231 124.721 25.9966 124.596 25.7466C124.486 25.4966 124.314 25.2622 124.08 25.0435C123.861 24.8247 123.58 24.645 123.236 24.5044C122.908 24.3638 122.51 24.2935 122.041 24.2935C121.385 24.2935 120.807 24.481 120.307 24.856C119.807 25.231 119.455 25.7544 119.252 26.4263H124.807Z" fill="white"/>
<path d="M108.588 22.1606H111.471V23.7544H111.658C111.799 23.4731 111.986 23.2153 112.221 22.981C112.455 22.7466 112.713 22.5435 112.994 22.3716C113.291 22.1997 113.604 22.0669 113.932 21.9731C114.275 21.8794 114.611 21.8325 114.939 21.8325C115.346 21.8325 115.689 21.8716 115.971 21.9497C116.268 22.0278 116.518 22.1294 116.721 22.2544L115.9 25.0435C115.713 24.9497 115.502 24.8794 115.268 24.8325C115.049 24.77 114.775 24.7388 114.447 24.7388C114.025 24.7388 113.643 24.8247 113.299 24.9966C112.955 25.1528 112.658 25.3794 112.408 25.6763C112.174 25.9731 111.986 26.3247 111.846 26.731C111.721 27.1216 111.658 27.5513 111.658 28.02V33.645H108.588V22.1606Z" fill="white"/>
<path d="M103.779 32.145H103.592C103.232 32.7231 102.748 33.1841 102.139 33.5278C101.529 33.856 100.834 34.02 100.053 34.02C98.5996 34.02 97.5137 33.5747 96.7949 32.6841C96.0918 31.7935 95.7402 30.606 95.7402 29.1216V22.1606H98.8105V28.7466C98.8105 29.5747 98.9902 30.1919 99.3496 30.5981C99.7246 30.9888 100.264 31.1841 100.967 31.1841C101.389 31.1841 101.756 31.0981 102.068 30.9263C102.396 30.7388 102.67 30.4966 102.889 30.1997C103.123 29.8872 103.295 29.5278 103.404 29.1216C103.529 28.6997 103.592 28.2544 103.592 27.7856V22.1606H106.662V33.645H103.779V32.145Z" fill="white"/>
<path d="M88.3945 24.7856H86.3789V22.1606H88.3945V18.645H91.4648V22.1606H94.2773V24.7856H91.4648V29.2388C91.4648 29.5044 91.4883 29.7544 91.5352 29.9888C91.5977 30.2075 91.707 30.395 91.8633 30.5513C92.082 30.8013 92.3945 30.9263 92.8008 30.9263C93.0664 30.9263 93.2773 30.9028 93.4336 30.856C93.5898 30.7935 93.7383 30.7153 93.8789 30.6216L94.7461 33.3169C94.3867 33.4888 93.9961 33.6138 93.5742 33.6919C93.168 33.7856 92.7148 33.8325 92.2148 33.8325C91.6367 33.8325 91.1133 33.7466 90.6445 33.5747C90.1914 33.3872 89.8086 33.1372 89.4961 32.8247C88.7617 32.1216 88.3945 31.1216 88.3945 29.8247V24.7856Z" fill="white"/>
<path d="M82.2051 32.145H82.0176C81.6582 32.7231 81.1738 33.1841 80.5645 33.5278C79.9551 33.856 79.2598 34.02 78.4785 34.02C77.0254 34.02 75.9395 33.5747 75.2207 32.6841C74.5176 31.7935 74.166 30.606 74.166 29.1216V22.1606H77.2363V28.7466C77.2363 29.5747 77.416 30.1919 77.7754 30.5981C78.1504 30.9888 78.6895 31.1841 79.3926 31.1841C79.8145 31.1841 80.1816 31.0981 80.4941 30.9263C80.8223 30.7388 81.0957 30.4966 81.3145 30.1997C81.5488 29.8872 81.7207 29.5278 81.8301 29.1216C81.9551 28.6997 82.0176 28.2544 82.0176 27.7856V22.1606H85.0879V33.645H82.2051V32.145Z" fill="white"/>
<path d="M62.7266 16.8638H73.3672V19.8638H65.8906V23.9419H72.6172V26.9419H65.8906V33.645H62.7266V16.8638Z" fill="white"/>
<path d="M33.332 50.5002V42.1668C37.9431 42.1668 41.6654 38.4446 41.6654 33.8335H49.9987C49.9987 43.0557 42.5265 50.5002 33.332 50.5002Z" fill="#FFD11A"/>
<path d="M33.3327 50.5002V42.1668C28.7216 42.1668 24.9993 38.4446 24.9993 33.8335H16.666C16.666 43.0557 24.1382 50.5002 33.3327 50.5002Z" fill="#FFD11A"/>
<path d="M0 33.833H8.33333C8.33333 38.4441 12.0556 42.1663 16.6667 42.1663V50.4997C7.47222 50.4997 0 43.0552 0 33.833Z" fill="#FFD11A"/>
<path d="M0 33.8332H8.33333C8.33333 29.2221 12.0556 25.4998 16.6667 25.4998V17.1665C7.47222 17.1665 0 24.6387 0 33.8332Z" fill="#FFD11A"/>
<path d="M16.6667 0.5V8.83333C12.0556 8.83333 8.33333 12.5556 8.33333 17.1667H0C0 7.97222 7.47222 0.5 16.6667 0.5Z" fill="#FFD11A"/>
<path d="M16.666 0.5V8.83333C21.2771 8.83333 24.9993 12.5556 24.9993 17.1667H33.3327C33.3327 7.97222 25.8605 0.5 16.666 0.5Z" fill="#FFD11A"/>
<path d="M50.0007 17.1667H41.6673C41.6673 12.5556 37.9451 8.83333 33.334 8.83333V0.5C42.5284 0.5 50.0007 7.97222 50.0007 17.1667Z" fill="#FFD11A"/>
<path d="M50.0007 17.1665H41.6673C41.6673 21.7776 37.9451 25.4998 33.334 25.4998V33.8332C42.5284 33.8332 50.0007 26.3887 50.0007 17.1665Z" fill="#FFD11A"/>
</svg>
